# Blender 5.1.2
# www.blender.org
mtllib curved_wall.mtl
o Cube
v -35.000004 -2.500000 22.348846
v -35.000004 2.500000 22.348846
v -0.000002 -2.500000 -12.651155
v -0.000002 2.500000 -12.651155
v -35.000004 -2.500000 22.348846
v -0.000002 -2.500000 -12.651155
v -34.808270 -2.500000 18.690348
v -34.235168 -2.500000 15.071936
v -33.286980 -2.500000 11.533249
v -31.974092 -2.500000 8.113060
v -30.310890 -2.500000 4.848844
v -28.315598 -2.500000 1.776361
v -26.010071 -2.500000 -1.070728
v -23.419575 -2.500000 -3.661224
v -20.572485 -2.500000 -5.966751
v -17.500002 -2.500000 -7.962045
v -14.235785 -2.500000 -9.625246
v -10.815598 -2.500000 -10.938135
v -7.276911 -2.500000 -11.886323
v -3.658498 -2.500000 -12.459423
v -0.000002 2.500000 -12.651155
v -35.000004 2.500000 22.348846
v -3.658498 2.500000 -12.459423
v -7.276911 2.500000 -11.886323
v -10.815598 2.500000 -10.938135
v -14.235785 2.500000 -9.625246
v -17.500002 2.500000 -7.962045
v -20.572485 2.500000 -5.966751
v -23.419575 2.500000 -3.661224
v -26.010071 2.500000 -1.070728
v -28.315598 2.500000 1.776361
v -30.310890 2.500000 4.848844
v -31.974092 2.500000 8.113060
v -33.286980 2.500000 11.533249
v -34.235168 2.500000 15.071936
v -34.808270 2.500000 18.690348
v -0.000002 -2.500000 -12.651155
v -0.000002 2.500000 -12.651155
v 34.999996 -2.500000 22.348846
v 34.999996 2.500000 22.348846
v -0.000002 -2.500000 -12.651155
v 34.999996 -2.500000 22.348846
v 3.658493 -2.500000 -12.459423
v 7.276906 -2.500000 -11.886323
v 10.815593 -2.500000 -10.938135
v 14.235780 -2.500000 -9.625246
v 17.499998 -2.500000 -7.962045
v 20.572481 -2.500000 -5.966751
v 23.419567 -2.500000 -3.661224
v 26.010065 -2.500000 -1.070728
v 28.315592 -2.500000 1.776361
v 30.310888 -2.500000 4.848844
v 31.974087 -2.500000 8.113060
v 33.286976 -2.500000 11.533249
v 34.235165 -2.500000 15.071936
v 34.808262 -2.500000 18.690348
v 34.999996 2.500000 22.348846
v -0.000002 2.500000 -12.651155
v 34.808262 2.500000 18.690348
v 34.235165 2.500000 15.071936
v 33.286976 2.500000 11.533249
v 31.974087 2.500000 8.113060
v 30.310888 2.500000 4.848844
v 28.315592 2.500000 1.776361
v 26.010065 2.500000 -1.070728
v 23.419567 2.500000 -3.661224
v 20.572481 2.500000 -5.966751
v 17.499998 2.500000 -7.962045
v 14.235780 2.500000 -9.625246
v 10.815593 2.500000 -10.938135
v 7.276906 2.500000 -11.886323
v 3.658493 2.500000 -12.459423
v -35.000004 -2.750000 22.348846
v -35.000004 2.250000 22.348846
v -0.000002 -2.750000 -12.651155
v -0.000002 2.250000 -12.651155
v -33.764263 -2.676777 22.413609
v 0.064760 -2.676777 -11.415416
v -33.067856 -2.500000 18.873272
v -32.523411 -2.500000 15.435781
v -31.622633 -2.500000 12.074029
v -30.375389 -2.500000 8.824850
v -28.795345 -2.500000 5.723844
v -26.899817 -2.500000 2.804985
v -24.709568 -2.500000 0.100251
v -22.248596 -2.500000 -2.360721
v -19.543861 -2.500000 -4.550972
v -16.625002 -2.500000 -6.446500
v -13.523995 -2.500000 -8.026542
v -10.274817 -2.500000 -9.273786
v -6.913065 -2.500000 -10.174564
v -3.475573 -2.500000 -10.719009
v 0.064760 2.323223 -11.415416
v -33.764263 2.323223 22.413609
v -3.475573 2.500000 -10.719009
v -6.913065 2.500000 -10.174564
v -10.274817 2.500000 -9.273786
v -13.523995 2.500000 -8.026542
v -16.625002 2.500000 -6.446500
v -19.543861 2.500000 -4.550972
v -22.248596 2.500000 -2.360721
v -24.709568 2.500000 0.100251
v -26.899817 2.500000 2.804985
v -28.795345 2.500000 5.723844
v -30.375389 2.500000 8.824850
v -31.622633 2.500000 12.074029
v -32.523411 2.500000 15.435781
v -33.067856 2.500000 18.873272
v -0.000002 -2.750000 -12.651155
v -0.000002 2.250000 -12.651155
v 34.999996 -2.750000 22.348846
v 34.999996 2.250000 22.348846
v -0.064764 -2.676777 -11.415416
v 33.764256 -2.676777 22.413609
v 3.475569 -2.500000 -10.719009
v 6.913061 -2.500000 -10.174564
v 10.274813 -2.500000 -9.273786
v 13.523990 -2.500000 -8.026542
v 16.624998 -2.500000 -6.446500
v 19.543858 -2.500000 -4.550972
v 22.248590 -2.500000 -2.360721
v 24.709560 -2.500000 0.100251
v 26.899813 -2.500000 2.804985
v 28.795343 -2.500000 5.723844
v 30.375381 -2.500000 8.824849
v 31.622625 -2.500000 12.074029
v 32.523407 -2.500000 15.435781
v 33.067852 -2.500000 18.873270
v 33.764256 2.323223 22.413609
v -0.064764 2.323223 -11.415416
v 33.067852 2.500000 18.873270
v 32.523407 2.500000 15.435781
v 31.622625 2.500000 12.074029
v 30.375381 2.500000 8.824849
v 28.795343 2.500000 5.723844
v 26.899813 2.500000 2.804985
v 24.709560 2.500000 0.100251
v 22.248590 2.500000 -2.360721
v 19.543858 2.500000 -4.550972
v 16.624998 2.500000 -6.446500
v 13.523990 2.500000 -8.026542
v 10.274813 2.500000 -9.273786
v 6.913061 2.500000 -10.174564
v 3.475569 2.500000 -10.719009
vn -0.0523 -0.0000 -0.9986
vn -0.1564 -0.0000 -0.9877
vn -0.2588 -0.0000 -0.9659
vn -0.3584 -0.0000 -0.9336
vn -0.4540 -0.0000 -0.8910
vn -0.5446 -0.0000 -0.8387
vn -0.6293 -0.0000 -0.7771
vn -0.7071 -0.0000 -0.7071
vn -0.7771 -0.0000 -0.6293
vn -0.8387 -0.0000 -0.5446
vn -0.8910 -0.0000 -0.4540
vn -0.9336 -0.0000 -0.3584
vn -0.9659 -0.0000 -0.2588
vn -0.9877 -0.0000 -0.1564
vn -0.9986 -0.0000 -0.0523
vn -0.0000 1.0000 -0.0000
vn 0.9986 -0.0000 -0.0523
vn 0.9877 -0.0000 -0.1564
vn 0.9659 -0.0000 -0.2588
vn 0.9336 -0.0000 -0.3584
vn 0.8910 -0.0000 -0.4540
vn 0.8387 -0.0000 -0.5446
vn 0.7771 -0.0000 -0.6293
vn 0.7071 -0.0000 -0.7071
vn 0.6293 -0.0000 -0.7771
vn 0.5446 -0.0000 -0.8387
vn 0.4540 -0.0000 -0.8910
vn 0.3584 -0.0000 -0.9336
vn 0.2588 -0.0000 -0.9659
vn 0.1564 -0.0000 -0.9877
vn 0.0523 -0.0000 -0.9986
vn 0.1930 -0.0000 0.9812
vn 0.1564 -0.0000 0.9877
vn 0.2588 -0.0000 0.9659
vn 0.3584 -0.0000 0.9336
vn 0.4540 -0.0000 0.8910
vn 0.5446 -0.0000 0.8387
vn 0.6293 -0.0000 0.7771
vn 0.7071 -0.0000 0.7071
vn 0.7771 -0.0000 0.6293
vn 0.8387 -0.0000 0.5446
vn 0.8910 -0.0000 0.4540
vn 0.9336 -0.0000 0.3584
vn 0.9659 -0.0000 0.2588
vn 0.9877 -0.0000 0.1564
vn 0.9812 -0.0000 0.1930
vn -0.0523 -0.0000 0.9986
vn -0.9812 -0.0000 0.1930
vn -0.9877 -0.0000 0.1564
vn -0.9659 -0.0000 0.2588
vn -0.9336 -0.0000 0.3584
vn -0.8910 -0.0000 0.4540
vn -0.8387 -0.0000 0.5446
vn -0.7771 -0.0000 0.6293
vn -0.7071 -0.0000 0.7071
vn -0.6293 -0.0000 0.7771
vn -0.5446 -0.0000 0.8387
vn -0.4540 -0.0000 0.8910
vn -0.3584 -0.0000 0.9336
vn -0.2588 -0.0000 0.9659
vn -0.1564 -0.0000 0.9877
vn -0.1930 -0.0000 0.9812
vn 0.0523 -0.0000 0.9986
vn -0.0000 -0.0000 -1.0000
vn 0.0315 0.9979 0.0567
vn -0.0315 -0.9979 -0.0567
vn -0.0000 -1.0000 -0.0000
vn 0.0567 0.9979 0.0315
vn -0.0567 -0.9979 -0.0315
vn -0.9986 -0.0000 0.0523
vn -0.0000 -0.0000 1.0000
vn -0.0567 0.9979 0.0315
vn 0.0567 -0.9979 -0.0315
vn -0.0315 0.9979 0.0567
vn 0.0315 -0.9979 -0.0567
vn 0.9986 -0.0000 0.0523
vt 0.625000 0.500000
vt 0.375000 0.500000
vt 0.375000 0.473868
vt 0.625000 0.473868
vt 0.375000 0.448022
vt 0.625000 0.448022
vt 0.375000 0.422746
vt 0.625000 0.422746
vt 0.375000 0.398316
vt 0.625000 0.398316
vt 0.375000 0.375000
vt 0.625000 0.375000
vt 0.375000 0.353054
vt 0.625000 0.353054
vt 0.375000 0.332717
vt 0.625000 0.332717
vt 0.375000 0.167283
vt 0.625000 0.167283
vt 0.375000 0.146946
vt 0.625000 0.146946
vt 0.375000 0.125000
vt 0.625000 0.125000
vt 0.375000 0.101684
vt 0.625000 0.101684
vt 0.375000 0.077254
vt 0.625000 0.077254
vt 0.375000 0.051978
vt 0.625000 0.051978
vt 0.375000 0.026132
vt 0.625000 0.026132
vt 0.375000 0.000000
vt 0.625000 0.000000
vt 0.625000 0.750000
vt 0.375000 0.750000
vt 0.375000 0.723868
vt 0.625000 0.723868
vt 0.375000 0.698022
vt 0.625000 0.698022
vt 0.375000 0.672746
vt 0.625000 0.672746
vt 0.375000 0.648316
vt 0.625000 0.648316
vt 0.375000 0.625000
vt 0.625000 0.625000
vt 0.375000 0.603054
vt 0.625000 0.603054
vt 0.375000 0.582717
vt 0.625000 0.582717
vt 0.375000 0.417283
vt 0.625000 0.417283
vt 0.375000 0.396946
vt 0.625000 0.396946
vt 0.375000 0.351684
vt 0.625000 0.351684
vt 0.375000 0.327254
vt 0.625000 0.327254
vt 0.375000 0.301978
vt 0.625000 0.301978
vt 0.375000 0.276132
vt 0.625000 0.276132
vt 0.375000 0.250000
vt 0.625000 0.250000
s 0
f 21/1/1 6/2/1 20/3/1 23/4/1
f 23/4/2 20/3/2 19/5/2 24/6/2
f 24/6/3 19/5/3 18/7/3 25/8/3
f 25/8/4 18/7/4 17/9/4 26/10/4
f 26/10/5 17/9/5 16/11/5 27/12/5
f 27/12/6 16/11/6 15/13/6 28/14/6
f 28/14/7 15/13/7 14/15/7 29/16/7
f 29/16/8 14/15/8 13/17/8 30/18/8
f 30/18/9 13/17/9 12/19/9 31/20/9
f 31/20/10 12/19/10 11/21/10 32/22/10
f 32/22/11 11/21/11 10/23/11 33/24/11
f 33/24/12 10/23/12 9/25/12 34/26/12
f 34/26/13 9/25/13 8/27/13 35/28/13
f 35/28/14 8/27/14 7/29/14 36/30/14
f 36/30/15 7/29/15 5/31/15 22/32/15
f 1/31/16 2/32/16 22/32/16 5/31/16
f 6/2/16 21/1/16 4/1/16 3/2/16
f 57/33/17 42/34/17 56/35/17 59/36/17
f 59/36/18 56/35/18 55/37/18 60/38/18
f 60/38/19 55/37/19 54/39/19 61/40/19
f 61/40/20 54/39/20 53/41/20 62/42/20
f 62/42/21 53/41/21 52/43/21 63/44/21
f 63/44/22 52/43/22 51/45/22 64/46/22
f 64/46/23 51/45/23 50/47/23 65/48/23
f 65/48/24 50/47/24 49/49/24 66/50/24
f 66/50/25 49/49/25 48/51/25 67/52/25
f 67/52/26 48/51/26 47/11/26 68/12/26
f 68/12/27 47/11/27 46/53/27 69/54/27
f 69/54/28 46/53/28 45/55/28 70/56/28
f 70/56/29 45/55/29 44/57/29 71/58/29
f 71/58/30 44/57/30 43/59/30 72/60/30
f 72/60/31 43/59/31 41/61/31 58/62/31
f 37/61/16 38/62/16 58/62/16 41/61/16
f 42/34/16 57/33/16 40/33/16 39/34/16
f 93/1/32 95/4/32 92/3/32 78/2/32
f 95/4/33 96/6/33 91/5/33 92/3/33
f 96/6/34 97/8/34 90/7/34 91/5/34
f 97/8/35 98/10/35 89/9/35 90/7/35
f 98/10/36 99/12/36 88/11/36 89/9/36
f 99/12/37 100/14/37 87/13/37 88/11/37
f 100/14/38 101/16/38 86/15/38 87/13/38
f 101/16/39 102/18/39 85/17/39 86/15/39
f 102/18/40 103/20/40 84/19/40 85/17/40
f 103/20/41 104/22/41 83/21/41 84/19/41
f 104/22/42 105/24/42 82/23/42 83/21/42
f 105/24/43 106/26/43 81/25/43 82/23/43
f 106/26/44 107/28/44 80/27/44 81/25/44
f 107/28/45 108/30/45 79/29/45 80/27/45
f 108/30/46 94/32/46 77/31/46 79/29/46
f 73/31/47 77/31/47 94/32/47 74/32/47
f 78/2/17 75/2/17 76/1/17 93/1/17
f 129/33/48 131/36/48 128/35/48 114/34/48
f 131/36/49 132/38/49 127/37/49 128/35/49
f 132/38/50 133/40/50 126/39/50 127/37/50
f 133/40/51 134/42/51 125/41/51 126/39/51
f 134/42/52 135/44/52 124/43/52 125/41/52
f 135/44/53 136/46/53 123/45/53 124/43/53
f 136/46/54 137/48/54 122/47/54 123/45/54
f 137/48/55 138/50/55 121/49/55 122/47/55
f 138/50/56 139/52/56 120/51/56 121/49/56
f 139/52/57 140/12/57 119/11/57 120/51/57
f 140/12/58 141/54/58 118/53/58 119/11/58
f 141/54/59 142/56/59 117/55/59 118/53/59
f 142/56/60 143/58/60 116/57/60 117/55/60
f 143/58/61 144/60/61 115/59/61 116/57/61
f 144/60/62 130/62/62 113/61/62 115/59/62
f 109/61/15 113/61/15 130/62/15 110/62/15
f 114/34/63 111/34/63 112/33/63 129/33/63
f 2/32/16 1/31/16 73/31/16 74/32/16
f 3/2/64 4/1/64 76/1/64 75/2/64
f 21/1/65 23/4/65 95/4/65 93/1/65
f 20/3/66 6/2/66 78/2/66 92/3/66
f 23/4/16 24/6/16 96/6/16 95/4/16
f 19/5/67 20/3/67 92/3/67 91/5/67
f 24/6/16 25/8/16 97/8/16 96/6/16
f 18/7/67 19/5/67 91/5/67 90/7/67
f 25/8/16 26/10/16 98/10/16 97/8/16
f 17/9/67 18/7/67 90/7/67 89/9/67
f 26/10/16 27/12/16 99/12/16 98/10/16
f 16/11/67 17/9/67 89/9/67 88/11/67
f 27/12/16 28/14/16 100/14/16 99/12/16
f 15/13/67 16/11/67 88/11/67 87/13/67
f 28/14/16 29/16/16 101/16/16 100/14/16
f 14/15/67 15/13/67 87/13/67 86/15/67
f 29/16/16 30/18/16 102/18/16 101/16/16
f 13/17/67 14/15/67 86/15/67 85/17/67
f 30/18/16 31/20/16 103/20/16 102/18/16
f 12/19/67 13/17/67 85/17/67 84/19/67
f 31/20/16 32/22/16 104/22/16 103/20/16
f 11/21/67 12/19/67 84/19/67 83/21/67
f 32/22/16 33/24/16 105/24/16 104/22/16
f 10/23/67 11/21/67 83/21/67 82/23/67
f 33/24/16 34/26/16 106/26/16 105/24/16
f 9/25/67 10/23/67 82/23/67 81/25/67
f 34/26/16 35/28/16 107/28/16 106/26/16
f 8/27/67 9/25/67 81/25/67 80/27/67
f 35/28/16 36/30/16 108/30/16 107/28/16
f 7/29/67 8/27/67 80/27/67 79/29/67
f 36/30/68 22/32/68 94/32/68 108/30/68
f 5/31/69 7/29/69 79/29/69 77/31/69
f 1/31/31 5/31/31 77/31/31 73/31/31
f 22/32/47 2/32/47 74/32/47 94/32/47
f 6/2/70 3/2/70 75/2/70 78/2/70
f 4/1/17 21/1/17 93/1/17 76/1/17
f 38/62/71 37/61/71 109/61/71 110/62/71
f 39/34/16 40/33/16 112/33/16 111/34/16
f 57/33/72 59/36/72 131/36/72 129/33/72
f 56/35/73 42/34/73 114/34/73 128/35/73
f 59/36/16 60/38/16 132/38/16 131/36/16
f 55/37/67 56/35/67 128/35/67 127/37/67
f 60/38/16 61/40/16 133/40/16 132/38/16
f 54/39/67 55/37/67 127/37/67 126/39/67
f 61/40/16 62/42/16 134/42/16 133/40/16
f 53/41/67 54/39/67 126/39/67 125/41/67
f 62/42/16 63/44/16 135/44/16 134/42/16
f 52/43/67 53/41/67 125/41/67 124/43/67
f 63/44/16 64/46/16 136/46/16 135/44/16
f 51/45/67 52/43/67 124/43/67 123/45/67
f 64/46/16 65/48/16 137/48/16 136/46/16
f 50/47/67 51/45/67 123/45/67 122/47/67
f 65/48/16 66/50/16 138/50/16 137/48/16
f 49/49/67 50/47/67 122/47/67 121/49/67
f 66/50/16 67/52/16 139/52/16 138/50/16
f 48/51/67 49/49/67 121/49/67 120/51/67
f 67/52/16 68/12/16 140/12/16 139/52/16
f 47/11/67 48/51/67 120/51/67 119/11/67
f 68/12/16 69/54/16 141/54/16 140/12/16
f 46/53/67 47/11/67 119/11/67 118/53/67
f 69/54/16 70/56/16 142/56/16 141/54/16
f 45/55/67 46/53/67 118/53/67 117/55/67
f 70/56/16 71/58/16 143/58/16 142/56/16
f 44/57/67 45/55/67 117/55/67 116/57/67
f 71/58/16 72/60/16 144/60/16 143/58/16
f 43/59/67 44/57/67 116/57/67 115/59/67
f 72/60/74 58/62/74 130/62/74 144/60/74
f 41/61/75 43/59/75 115/59/75 113/61/75
f 37/61/76 41/61/76 113/61/76 109/61/76
f 58/62/15 38/62/15 110/62/15 130/62/15
f 42/34/1 39/34/1 111/34/1 114/34/1
f 40/33/63 57/33/63 129/33/63 112/33/63
